<svg width="33" height="26" viewBox="0 0 33 26" fill="none" xmlns="http://www.w3.org/2000/svg">
<g clip-path="url(#clip0_57_563)">
<path d="M1.49998 1.8H31.5C32 1.8 32.4 1.4 32.4 0.9C32.4 0.4 32 0 31.5 0H1.49998C0.999976 0 0.599976 0.4 0.599976 0.9C0.599976 1.4 0.999976 1.8 1.49998 1.8ZM1.49998 25.9H31.5C32 25.9 32.4 25.5 32.4 25C32.4 24.5 32 24.1 31.5 24.1H1.49998C0.999976 24.1 0.599976 24.5 0.599976 25C0.599976 25.5 0.999976 25.9 1.49998 25.9ZM1.49998 13.9H31.5C32 13.9 32.4 13.5 32.4 13C32.4 12.5 32 12.1 31.5 12.1H1.49998C0.999976 12.1 0.599976 12.5 0.599976 13C0.599976 13.5 0.999976 13.9 1.49998 13.9Z" fill="white"/>
</g>
<defs>
<clipPath id="clip0_57_563">
<rect width="33" height="26" fill="white"/>
</clipPath>
</defs>
</svg>
