<svg width="84" height="36" viewBox="0 0 84 36" fill="none" xmlns="http://www.w3.org/2000/svg">
<path d="M61.0259 21.2694C61.0259 17.5244 61.0259 13.7801 61.0259 10.0366C61.0259 8.06719 61.5153 6.29397 63.4493 5.41682C65.4707 4.49948 67.6009 4.50894 69.36 5.92988C70.208 6.66074 70.7755 7.66372 70.9653 8.76703C71.2349 10.7436 71.1025 12.7745 71.1096 14.7841C71.1214 18.3306 71.1096 21.877 71.1096 25.4234C71.1096 25.7379 71.1096 26.0547 71.1096 26.3692C71.1781 27.7263 71.6155 28.3599 72.5116 28.2937C73.767 28.1991 73.8001 27.2818 73.7978 26.3124C73.7867 20.9534 73.7867 15.5943 73.7978 10.2352C73.7978 7.30826 74.9161 5.56341 77.2993 5.05273C81.0987 4.23941 84.0044 5.96061 83.9926 10.0721C83.9689 17.5598 83.9926 25.0475 83.9926 32.5329C83.9926 34.1169 83.489 34.857 82.3659 34.9941C80.7701 35.1903 79.9425 34.4527 79.9402 32.7622C79.9291 27.9532 79.9291 23.1459 79.9402 18.34C79.9402 17.3801 79.8172 16.5668 78.6564 16.4722C77.7319 16.3942 77.2047 17.0539 77.1976 18.3377C77.1819 22.3191 77.1819 26.2998 77.1976 30.2797C77.1976 32.0293 76.9233 33.6512 75.162 34.4598C73.2303 35.344 71.2443 35.3275 69.3978 34.1973C68.315 33.5377 67.8539 32.4383 67.8468 31.1781C67.8279 27.1187 67.8256 23.0592 67.8114 18.9997C67.8265 18.567 67.8083 18.1339 67.757 17.704C67.6317 16.8931 67.147 16.4084 66.3006 16.4793C65.4542 16.5503 65.0735 17.0657 65.0759 17.9168C65.0877 20.4797 65.0759 23.0402 65.0759 25.6031C65.0759 27.9674 65.0759 30.3317 65.0759 32.696C65.0759 34.3132 64.4564 34.9988 63.0662 35.0059C61.676 35.013 61.0306 34.3321 61.0259 32.7267C61.0188 28.9155 61.0259 25.0925 61.0259 21.2694Z" fill="white"/>
<path d="M7.10354 21.0921C7.10354 17.191 7.08935 13.2899 7.10354 9.38884C7.10354 7.02455 8.73727 5.19932 11.0023 4.92743C14.0924 4.55623 16.3006 5.72419 16.9508 8.12631C17.0758 8.70221 17.1251 9.29196 17.0974 9.88061C17.0974 15.2381 17.0974 20.5979 17.0974 25.9578C17.0974 27.5773 17.5041 28.2748 18.4498 28.3221C19.4404 28.3646 19.8683 27.6577 19.8683 25.9578C19.8683 19.653 19.8683 13.3482 19.8683 7.04346C19.8683 5.45939 20.5776 4.83994 22.1381 4.9156C23.0554 4.96052 23.6157 5.38846 23.7789 6.29871C23.8581 6.72301 23.9008 7.1533 23.9066 7.58489C23.9066 14.952 23.9066 22.3207 23.9066 29.691C23.9066 33.7576 20.9134 35.954 17.0005 34.7931C14.8868 34.1666 13.7354 32.5305 13.7236 30.0267C13.7031 26.1256 13.7031 22.2238 13.7236 18.3211C13.7236 17.3541 13.5817 16.5243 12.4066 16.5148C11.2316 16.5054 11.0212 17.3872 11.0164 18.3117C10.9999 23.0804 11.0164 27.8469 10.9975 32.6156C10.9975 34.448 10.4892 35.0343 9.02334 35.0296C7.74663 35.0296 7.09408 34.3865 7.08936 33.0483C7.09408 29.0526 7.10354 25.0712 7.10354 21.0921Z" fill="white"/>
<path d="M26.9564 21.0164C26.9564 17.1555 26.9423 13.2923 26.9564 9.43141C26.973 6.54934 28.758 4.89434 31.8103 4.89434C34.9501 4.89434 36.9432 6.65337 36.9503 9.48106C36.9669 14.9969 36.9503 20.5152 36.9503 26.0311C36.9503 26.4614 36.8557 26.9981 37.0685 27.2984C37.3712 27.7263 37.922 28.2441 38.3594 28.2441C38.7968 28.2441 39.3051 27.6956 39.6314 27.2653C39.8253 27.0005 39.7213 26.504 39.7213 26.1115C39.7213 19.7673 39.7213 13.4231 39.7213 7.07894C39.7213 5.38611 40.3785 4.7903 42.0312 4.90616C42.9532 4.96999 43.4899 5.42394 43.5845 6.35547C43.6223 6.74557 43.6412 7.14041 43.6412 7.53761C43.6412 14.9473 43.6554 22.3546 43.6412 29.7619C43.6412 33.8049 40.7143 35.9446 36.851 34.7884C34.7846 34.169 33.5954 32.5565 33.5836 30.2703C33.567 26.3692 33.5836 22.4681 33.5836 18.567C33.5836 18.2502 33.4843 17.5764 33.3329 17.3565C32.9783 16.8412 32.6969 16.7867 32.269 16.7394C31.8411 16.6921 31.3422 16.9546 31.0349 17.3565C30.7984 17.6757 30.8339 18.2573 30.8315 18.7231C30.8197 23.4895 30.8315 28.2583 30.815 33.027C30.815 34.5827 29.699 35.3913 28.2142 34.9657C27.2283 34.682 26.9352 33.9396 26.9423 32.9608C26.9683 28.977 26.9564 24.9908 26.9564 21.0164Z" fill="white"/>
<path d="M46.7882 19.9312C46.7882 16.6212 46.7551 13.3112 46.7882 10.0012C46.8213 7.32245 48.63 5.27261 51.1456 4.93452C54.562 4.47584 57.0564 5.89441 57.8295 8.74811C57.9357 9.16529 57.9882 9.59435 57.9855 10.0248C57.995 16.6448 57.995 23.2649 57.9855 29.8849C57.9855 32.5944 56.1319 34.6135 53.3633 34.9941C50.3063 35.4244 47.6157 33.8853 46.9396 31.2609C46.8051 30.6063 46.7511 29.9378 46.7788 29.2702C46.7646 26.1564 46.7788 23.0426 46.7788 19.9312H46.7882ZM53.6943 22.3286C53.6943 20.8746 53.6778 19.4205 53.6943 17.9665C53.7062 17.1295 53.3657 16.5834 52.5122 16.5006C51.6019 16.4108 51.0416 16.9238 51.0274 17.7939C50.9833 20.8564 50.9833 23.9198 51.0274 26.9839C51.0274 27.7783 51.5405 28.3386 52.3916 28.2984C53.2427 28.2582 53.6991 27.7097 53.6896 26.8089C53.6825 25.3147 53.6943 23.8228 53.6943 22.3286Z" fill="white"/>
<path d="M4.07723 22.4516C4.07723 25.92 4.07723 29.386 4.07723 32.8544C4.07723 34.3912 3.36794 35.0651 1.93282 35.0154C0.750673 34.9776 0.119407 34.3652 0.0413857 33.0625C-0.0106287 32.1995 0.0272005 31.3295 0.0272005 30.4618C0.0272005 24.354 0.0272005 18.2479 0.0272005 12.1433C0.0272005 10.1762 1.20935 9.24699 2.86435 9.85698C3.91882 10.2447 4.07014 11.1053 4.07014 12.0534C4.07802 15.5195 4.08038 18.9855 4.07723 22.4516Z" fill="white"/>
<path d="M4.07724 4.20397C4.07724 4.63663 4.07724 5.0693 4.07724 5.4996C4.02996 6.90399 3.39397 7.56363 2.08888 7.57545C0.78379 7.58727 0.102871 6.9631 0.0319425 5.56108C-0.012979 4.70047 -0.00825043 3.83514 0.0319425 2.97454C0.0934141 1.51104 0.769604 0.867958 2.14799 0.898694C3.4318 0.927065 4.03942 1.59616 4.07961 3.02656C4.0867 3.42139 4.07724 3.81386 4.07724 4.20397Z" fill="white"/>
</svg>
