<svg width="17" height="16" viewBox="0 0 17 16" fill="none" xmlns="http://www.w3.org/2000/svg">
<path d="M8.5 16C7.86882 16 7.35714 15.4883 7.35714 14.8571V9.14286H1.64286C1.01167 9.14286 0.5 8.63118 0.5 8V8C0.5 7.36882 1.01167 6.85714 1.64286 6.85714H7.35714V1.14286C7.35714 0.511674 7.86882 0 8.5 0V0C9.13118 0 9.64286 0.511674 9.64286 1.14286V6.85714H15.3571C15.9883 6.85714 16.5 7.36882 16.5 8V8C16.5 8.63118 15.9883 9.14286 15.3571 9.14286H9.64286V14.8571C9.64286 15.4883 9.13118 16 8.5 16V16Z" fill="#12419F"/>
</svg>
