<svg width="20" height="21" viewBox="0 0 20 21" fill="none" xmlns="http://www.w3.org/2000/svg">
<path d="M14.5 13.0233L19.6147 18.1393C19.8513 18.3878 19.9815 18.7189 19.9773 19.062C19.9731 19.4051 19.8349 19.733 19.5923 19.9756C19.3497 20.2182 19.0218 20.3564 18.6787 20.3606C18.3356 20.3647 18.0045 20.2346 17.756 19.998L12.64 14.8833C11.0076 16.0494 8.99634 16.5591 7.00554 16.3112C5.01473 16.0634 3.18987 15.0761 1.89313 13.5454C0.596387 12.0146 -0.0774497 10.0523 0.00535342 8.04785C0.0881566 6.04338 0.921546 4.14332 2.34012 2.72474C3.7587 1.30616 5.65877 0.47277 7.66323 0.389966C9.6677 0.307163 11.63 0.981 13.1608 2.27774C14.6915 3.57449 15.6788 5.39934 15.9266 7.39015C16.1745 9.38095 15.6648 11.3922 14.4987 13.0247L14.5 13.0233ZM13.36 8.37799C13.36 6.95484 12.7947 5.58998 11.7884 4.58366C10.7821 3.57734 9.4172 3.01199 7.99405 3.01199C6.57089 3.01199 5.20603 3.57734 4.19971 4.58366C3.19339 5.58998 2.62805 6.95484 2.62805 8.37799C2.62805 9.80114 3.19339 11.166 4.19971 12.1723C5.20603 13.1786 6.57089 13.744 7.99405 13.744C9.4172 13.744 10.7821 13.1786 11.7884 12.1723C12.7947 11.166 13.36 9.80114 13.36 8.37799Z" fill="#12419F"/>
</svg>
