<svg width="21" height="21" viewBox="0 0 21 21" fill="none" xmlns="http://www.w3.org/2000/svg">
<path d="M20.9876 5.12056L19.8122 11.5663C19.7152 12.0987 19.4345 12.5803 19.019 12.9271C18.6035 13.274 18.0796 13.464 17.5383 13.4643H6.36195L6.78589 15.7767H17.1433C17.6007 15.7767 18.0477 15.9123 18.428 16.1664C18.8083 16.4205 19.1046 16.7816 19.2797 17.2041C19.4547 17.6267 19.5005 18.0916 19.4112 18.5401C19.322 18.9887 19.1018 19.4007 18.7784 19.7241C18.455 20.0475 18.043 20.2677 17.5944 20.3569C17.1459 20.4462 16.6809 20.4004 16.2584 20.2254C15.8359 20.0503 15.4747 19.754 15.2207 19.3737C14.9666 18.9934 14.831 18.5464 14.831 18.089C14.831 17.8262 14.8767 17.5654 14.9658 17.3182H9.30057C9.38974 17.5654 9.43538 17.8262 9.43546 18.089C9.43616 18.4621 9.34657 18.8298 9.17435 19.1608C9.00212 19.4917 8.75238 19.7761 8.44643 19.9896C8.14048 20.2031 7.78741 20.3394 7.41736 20.3869C7.04731 20.4344 6.67127 20.3916 6.32133 20.2622C5.97139 20.1329 5.65795 19.9208 5.40776 19.644C5.15757 19.3672 4.97806 19.0341 4.88456 18.6729C4.79105 18.3117 4.78632 17.9333 4.87078 17.5699C4.95524 17.2065 5.12637 16.8689 5.36957 16.586L2.70072 1.90253H0.956821C0.752396 1.90253 0.556343 1.82133 0.411793 1.67677C0.267243 1.53222 0.186035 1.33617 0.186035 1.13175C0.186035 0.927322 0.267243 0.73127 0.411793 0.58672C0.556343 0.442169 0.752396 0.360962 0.956821 0.360962H2.70072C3.06052 0.361749 3.40872 0.488367 3.68498 0.71888C3.96124 0.949393 4.14818 1.26928 4.21339 1.62312L4.68549 4.21489H20.2265C20.339 4.21512 20.4501 4.2403 20.5517 4.28862C20.6533 4.33693 20.743 4.40718 20.8142 4.4943C20.8887 4.57868 20.9431 4.67893 20.9731 4.78743C21.0032 4.89594 21.0081 5.00986 20.9876 5.12056Z" fill="white"/>
</svg>
