<svg width="15" height="17" viewBox="0 0 15 17" fill="none" xmlns="http://www.w3.org/2000/svg">
<path d="M14.1268 3.40909H1.32683C1.09537 3.40909 0.873386 3.50104 0.709718 3.66471C0.546049 3.82837 0.454102 4.05036 0.454102 4.28182C0.454102 4.51328 0.546049 4.73526 0.709718 4.89893C0.873386 5.0626 1.09537 5.15455 1.32683 5.15455H1.61774V15.0455C1.61965 15.4306 1.77351 15.7995 2.04588 16.0719C2.31824 16.3442 2.6871 16.4981 3.07228 16.5H12.3814C12.7666 16.4981 13.1354 16.3442 13.4078 16.0719C13.6801 15.7995 13.834 15.4306 13.8359 15.0455V5.15455H14.1268C14.3583 5.15455 14.5803 5.0626 14.7439 4.89893C14.9076 4.73526 14.9996 4.51328 14.9996 4.28182C14.9996 4.05036 14.9076 3.82837 14.7439 3.66471C14.5803 3.50104 14.3583 3.40909 14.1268 3.40909ZM12.0905 14.7545H3.36319V5.15455H12.0905V14.7545ZM3.94501 1.37273C3.94501 1.14127 4.03696 0.919284 4.20063 0.755616C4.36429 0.591948 4.58628 0.5 4.81774 0.5H10.6359C10.8674 0.5 11.0894 0.591948 11.253 0.755616C11.4167 0.919284 11.5086 1.14127 11.5086 1.37273C11.5086 1.60419 11.4167 1.82617 11.253 1.98984C11.0894 2.15351 10.8674 2.24545 10.6359 2.24545H4.81774C4.58628 2.24545 4.36429 2.15351 4.20063 1.98984C4.03696 1.82617 3.94501 1.60419 3.94501 1.37273Z" fill="#7996CA"/>
<path d="M12.0905 14.7545H3.36319V5.15455H12.0905V14.7545Z" fill="#7996CA"/>
</svg>
