<svg width="24" height="23" viewBox="0 0 24 23" fill="none" xmlns="http://www.w3.org/2000/svg">
<rect width="23.3062" height="23" rx="11.5" fill="#FAF9F8"/>
<path d="M10.1349 12.9043L15.0942 7.94498C15.2797 7.75943 15.5159 7.66666 15.8026 7.66666C16.0894 7.66666 16.3255 7.75943 16.5111 7.94498C16.6967 8.13054 16.7894 8.36669 16.7894 8.65346C16.7894 8.94022 16.6967 9.17637 16.5111 9.36193L10.8433 15.0297C10.6409 15.2321 10.4048 15.3333 10.1349 15.3333C9.86497 15.3333 9.62881 15.2321 9.42639 15.0297L6.79493 12.3982C6.60938 12.2127 6.5166 11.9765 6.5166 11.6898C6.5166 11.403 6.60938 11.1668 6.79493 10.9813C6.98048 10.7957 7.21664 10.703 7.5034 10.703C7.79016 10.703 8.02632 10.7957 8.21187 10.9813L10.1349 12.9043Z" fill="#FAF9F8"/>
<rect x="0.5" y="0.5" width="22.3062" height="22" rx="11" stroke="#12419F" stroke-opacity="0.2"/>
</svg>
